<svg xmlns="http://www.w3.org/2000/svg" style="display:none"><symbol id="icon-arquitectura" viewBox="0 0 24 24"><path d="M3 21h18M4 21V9l8-6 8 6v12M9 21v-8h6v8"/></symbol><symbol id="icon-remodelacion" viewBox="0 0 24 24"><path d="M4 20V9l8-6 8 6v11M8 20h8"/><path d="M8 12a5 5 0 0 1 8-2l1-2v5h-5l2-1a3 3 0 1 0 1 4"/></symbol><symbol id="icon-construccion" viewBox="0 0 24 24"><path d="M4 21h16M7 21V5h9M7 8h11l3 3H7M15 5v16M20 11v6M18.5 17h3"/></symbol><symbol id="icon-modulares" viewBox="0 0 24 24"><path d="M12 2l8 4.5v9L12 20l-8-4.5v-9L12 2zM4 6.5l8 4.5 8-4.5M12 11v9"/></symbol><symbol id="icon-diagnostico" viewBox="0 0 24 24"><path d="M9 4h6l1 2h3v13H5V6h3l1-2zM8 10h5M8 14h3"/><circle cx="17" cy="16" r="3"/><path d="M19 18l2 2"/></symbol><symbol id="icon-diseno" viewBox="0 0 24 24"><path d="M4 20l4-1 11-11-3-3L5 16l-1 4zM13 6l3 3M3 3h7M3 7h4"/></symbol><symbol id="icon-ejecucion" viewBox="0 0 24 24"><path d="M14 6l4-4 4 4-4 4M3 21l9-9M5 3l4 4-2 2-4-4V3h2zM14 14l7 7"/></symbol><symbol id="icon-entrega" viewBox="0 0 24 24"><path d="M3 8l9-5 9 5v8l-9 5-9-5V8zM3 8l9 5 9-5M12 13v8"/><path d="M16 5l2 1-6 4-2-1"/></symbol><symbol id="icon-correo" viewBox="0 0 24 24"><rect x="3" y="5" width="18" height="14" rx="2"/><path d="M3 7l9 6 9-6"/></symbol><symbol id="icon-instagram" viewBox="0 0 24 24"><rect x="3" y="3" width="18" height="18" rx="5"/><circle cx="12" cy="12" r="4"/><circle cx="17.5" cy="6.5" r="1" fill="currentColor" stroke="none"/></symbol><symbol id="icon-telefono" viewBox="0 0 24 24"><path d="M6 3h4l2 5-3 2a15 15 0 0 0 5 5l2-3 5 2v4c0 2-2 3-4 3A17 17 0 0 1 3 7c0-2 1-4 3-4z"/></symbol><symbol id="icon-ubicacion" viewBox="0 0 24 24"><path d="M20 10c0 5-8 11-8 11S4 15 4 10a8 8 0 1 1 16 0z"/><circle cx="12" cy="10" r="2.5"/></symbol><symbol id="icon-presupuesto" viewBox="0 0 24 24"><path d="M6 2h9l4 4v16H6V2zM15 2v5h5M9 12h6M9 16h6"/><path d="M12 9v8M10 11h3a2 2 0 0 1 0 4h-3"/></symbol><symbol id="icon-planos" viewBox="0 0 24 24"><path d="M4 4h15v16H4zM8 4v5h5v4h6M4 14h5v6"/></symbol><symbol id="icon-sostenible" viewBox="0 0 24 24"><path d="M12 22V12M12 13C6 13 4 9 4 4c5 0 9 2 8 9zM12 16c6 0 8-4 8-9-5 0-9 3-8 9z"/></symbol></svg>